/vscmnt/brussel_pixiu_data/_data_brussel/112/vsc11236/PredSimResults/SUBJ07opt3D/expIG/worker_02.mot
version=1
nRows=4
nColumns=50
inDegrees=yes
endheader
                time	         pelvis_tilt	         pelvis_list	     pelvis_rotation	           pelvis_tx	           pelvis_ty	           pelvis_tz	       hip_flexion_r	     hip_adduction_r	      hip_rotation_r	        knee_angle_r	       ankle_angle_r	         mtp_angle_r	       hip_flexion_l	     hip_adduction_l	      hip_rotation_l	        knee_angle_l	       ankle_angle_l	         mtp_angle_l	    lumbar_extension	      lumbar_bending	     lumbar_rotation	 ercspn_r/activation	 intobl_r/activation	 extobl_r/activation	    abd_r/activation	    add_r/activation	hamstrings_r/activation	bifemsh_r/activation	glut_max_r/activation	iliopsoas_r/activation	rect_fem_r/activation	  vasti_r/activation	gastroc_r/activation	 soleus_r/activation	tib_ant_r/activation	 ercspn_l/activation	 intobl_l/activation	 extobl_l/activation	    abd_l/activation	    add_l/activation	hamstrings_l/activation	bifemsh_l/activation	glut_max_l/activation	iliopsoas_l/activation	rect_fem_l/activation	  vasti_l/activation	gastroc_l/activation	 soleus_l/activation	tib_ant_l/activation	
          2.13225588	         -1.28109031	          0.95173612	         -8.84571916	          1.49257912	          0.86886215	          0.02124285	        -11.51326754	         -0.42021377	          2.26711752	         -7.15356715	         11.46362416	         18.55265064	         24.03997822	         -1.18522169	         -2.48348171	        -10.92567340	          0.09292980	          0.23042152	         -6.50071372	          2.53349937	         -0.85504858	          0.05790851	          0.00999999	          0.00999999	          0.05447490	          0.01000000	          0.01000029	          0.09459157	          0.01000002	          0.11853895	          0.01000010	          0.00999999	          0.11692177	          0.24505035	          0.01914922	          0.12162861	          0.11749543	          0.01000000	          0.01000000	          0.09488317	          0.02736409	          0.08436629	          0.04635096	          0.01529920	          0.01126075	          0.01120906	          0.01492344	          0.01217483	          0.29305935	
          2.14647092	         -1.33900757	          0.82615091	         -8.57847928	          1.50436034	          0.86765804	          0.02013022	        -11.82418163	         -0.35487880	          1.61426463	         -8.02874325	         11.20637478	         19.81242399	         23.51683009	         -0.98797668	         -2.21919996	        -11.34433757	         -0.07907713	          0.22767707	         -6.38558475	          2.19554198	         -0.63707738	          0.07334304	          0.00999999	          0.00999999	          0.04404086	          0.01000000	          0.01000260	          0.07647364	          0.01000013	          0.09583418	          0.01000020	          0.01172139	          0.10369259	          0.24329655	          0.01548140	          0.11115100	          0.11580225	          0.01000000	          0.01000002	          0.09287697	          0.03418505	          0.06820692	          0.05816631	          0.01236881	          0.01000000	          0.00999999	          0.01206503	          0.00999999	          0.31302126	
          2.16068596	         -1.39221032	          0.69944152	         -8.26146977	          1.51633714	          0.86669287	          0.01888760	        -12.06089689	         -0.28646127	          0.93457677	         -9.06337065	         10.82838583	         21.10560975	         23.01627447	         -0.81503722	         -1.96807750	        -11.76506272	         -0.34594759	          0.22295526	         -6.25933534	          1.84074982	         -0.40619021	          0.08744335	          0.00999999	          0.00999999	          0.03560534	          0.01000000	          0.01000066	          0.06182600	          0.01000002	          0.07747824	          0.01892417	          0.01720468	          0.08383147	          0.23748446	          0.01251612	          0.11655691	          0.10800809	          0.01000000	          0.03823376	          0.10477606	          0.03972833	          0.05514268	          0.05196698	          0.01000000	          0.01000000	          0.01787167	          0.01000000	          0.00999999	          0.33813449	
          2.17490100	         -1.44038675	          0.56732573	         -7.89461969	          1.52846139	          0.86609247	          0.01751823	        -12.21406509	         -0.21184478	          0.22729599	        -10.25536803	         10.27066245	         22.42471386	         22.56150595	         -0.66036368	         -1.75867772	        -12.26599075	         -0.57238920	          0.21505843	         -6.12334549	          1.47718930	         -0.16536989	          0.10190967	          0.00999999	          0.00999999	          0.02878555	          0.01000000	          0.01000058	          0.04998394	          0.01000019	          0.06263818	          0.01529949	          0.02275323	          0.06777451	          0.22701730	          0.01011880	          0.11596907	          0.08732039	          0.01000000	          0.06078132	          0.10855232	          0.04538000	          0.04458075	          0.05234309	          0.01000000	          0.01000000	          0.03345125	          0.01000000	          0.00999999	          0.35033367	
